<?xml version="1.0" standalone="no"?>
<!DOCTYPE svg PUBLIC "-//W3C//DTD SVG 20010904//EN"
 "http://www.w3.org/TR/2001/REC-SVG-20010904/DTD/svg10.dtd">
<svg version="1.0" xmlns="http://www.w3.org/2000/svg"
 width="160.000000pt" height="160.000000pt" viewBox="0 0 160.000000 160.000000"
 preserveAspectRatio="xMidYMid meet">
<metadata>
Created by potrace 1.11, written by Peter Selinger 2001-2013
</metadata>
<g transform="translate(0.000000,160.000000) scale(0.100000,-0.100000)"
fill="#000000" stroke="none">
<path d="M812 1523 c-94 -11 -187 -47 -237 -91 -35 -30 -91 -106 -106 -142
-18 -46 -19 -54 -20 -127 -1 -163 90 -243 479 -418 243 -109 317 -160 334
-232 7 -26 -22 -85 -61 -126 -145 -156 -559 -102 -773 101 -21 20 -38 40 -38
45 0 5 -8 21 -19 35 -10 15 -24 44 -32 65 l-13 38 -19 -23 c-36 -46 -69 -122
-74 -173 -5 -45 -1 -60 23 -104 15 -29 48 -69 72 -89 25 -20 50 -42 57 -49 38
-36 213 -111 314 -134 107 -24 210 -30 298 -16 71 11 168 62 223 117 139 138
165 398 54 528 -58 68 -120 105 -398 237 -178 85 -289 163 -321 225 -21 40 6
87 66 117 65 32 106 38 244 38 97 0 135 -5 195 -24 91 -28 168 -70 212 -117
38 -40 48 -42 75 -11 47 51 69 123 58 194 -6 42 -6 42 -83 72 -139 53 -194 64
-387 74 -16 1 -72 -3 -123 -10z"/>
</g>
</svg>
